<svg xmlns="http://www.w3.org/2000/svg" xmlns:xlink="http://www.w3.org/1999/xlink" width="1024" zoomAndPan="magnify" viewBox="0 0 768 767.999994" height="1024" preserveAspectRatio="xMidYMid meet" version="1.0"><defs><g/><clipPath id="40b89723d0"><path d="M 0 62 L 547 62 L 547 488 L 0 488 Z M 0 62 " clip-rule="nonzero"/></clipPath><clipPath id="5fc046bd4b"><rect x="0" width="555" y="0" height="525"/></clipPath><clipPath id="26fe977d1d"><rect x="0" width="127" y="0" height="490"/></clipPath><clipPath id="fa41f2a0b6"><rect x="0" width="350" y="0" height="243"/></clipPath><clipPath id="e300db748a"><path d="M 0.199219 82 L 76 82 L 76 169 L 0.199219 169 Z M 0.199219 82 " clip-rule="nonzero"/></clipPath><clipPath id="270ef90a34"><rect x="0" width="77" y="0" height="220"/></clipPath></defs><g transform="matrix(1, 0, 0, 1, 0, 78)"><g clip-path="url(#5fc046bd4b)"><g clip-path="url(#40b89723d0)"><g fill="#000000" fill-opacity="1"><g transform="translate(2.182582, 387.067777)"><g><path d="M 523.609375 -72.234375 C 523.910156 -72.285156 524.242188 -72.335938 524.609375 -72.390625 C 525.367188 -72.503906 526.160156 -72.53125 526.984375 -72.46875 C 527.804688 -72.414062 528.601562 -72.113281 529.375 -71.5625 C 529.550781 -71.375 529.738281 -71.148438 529.9375 -70.890625 C 530.132812 -70.640625 530.257812 -70.332031 530.3125 -69.96875 C 530.238281 -69.75 530.132812 -69.484375 530 -69.171875 C 529.875 -68.859375 529.722656 -68.613281 529.546875 -68.4375 C 528.648438 -68.09375 527.703125 -67.898438 526.703125 -67.859375 C 526.242188 -67.785156 525.734375 -67.707031 525.171875 -67.625 C 519.472656 -67.09375 513.773438 -66.628906 508.078125 -66.234375 C 497.554688 -65.410156 487.0625 -64.535156 476.59375 -63.609375 C 433.425781 -59.753906 390.988281 -54.738281 349.28125 -48.5625 C 307.570312 -42.394531 265.398438 -35.332031 222.765625 -27.375 C 218.273438 -26.570312 213.8125 -25.597656 209.375 -24.453125 C 205.164062 -23.484375 200.910156 -22.617188 196.609375 -21.859375 C 192.484375 -21.054688 189.515625 -18.738281 187.703125 -14.90625 C 179.265625 0.820312 169.8125 15.945312 159.34375 30.46875 C 151.976562 40.71875 144.113281 50.117188 135.75 58.671875 C 127.382812 67.222656 118.304688 74.390625 108.515625 80.171875 C 98.734375 85.953125 88.175781 89.6875 76.84375 91.375 C 65.507812 93.0625 53.269531 92.082031 40.125 88.4375 C 33.988281 86.851562 28.359375 84.070312 23.234375 80.09375 C 14.867188 73.09375 12.738281 64.46875 16.84375 54.21875 C 19.851562 47.570312 24.148438 41.804688 29.734375 36.921875 C 38.171875 29.265625 48.3125 22.320312 60.15625 16.09375 C 72.007812 9.875 84.6875 4.347656 98.1875 -0.484375 C 111.6875 -5.316406 125.03125 -9.554688 138.21875 -13.203125 C 151.40625 -16.859375 163.472656 -19.914062 174.421875 -22.375 C 178.878906 -23.4375 182.066406 -25.953125 183.984375 -29.921875 C 191.066406 -44.546875 198.40625 -61.53125 206 -80.875 C 213.601562 -100.21875 220.664062 -120.425781 227.1875 -141.5 C 233.71875 -162.570312 238.988281 -182.910156 243 -202.515625 C 247.019531 -222.128906 249.070312 -239.550781 249.15625 -254.78125 C 249.125 -259.394531 248.273438 -263.878906 246.609375 -268.234375 C 243.648438 -275.179688 238.503906 -278.617188 231.171875 -278.546875 C 230.128906 -278.492188 229.144531 -278.394531 228.21875 -278.25 C 226.070312 -277.925781 223.992188 -277.316406 221.984375 -276.421875 C 212.992188 -273.097656 202.179688 -267.117188 189.546875 -258.484375 C 176.910156 -249.859375 163.84375 -239.535156 150.34375 -227.515625 C 136.851562 -215.503906 124.140625 -202.664062 112.203125 -189 C 100.265625 -175.332031 90.46875 -161.800781 82.8125 -148.40625 C 75.164062 -135.007812 70.921875 -122.53125 70.078125 -110.96875 C 69.492188 -101.050781 73.945312 -94.566406 83.4375 -91.515625 C 91 -89.484375 98.757812 -89.273438 106.71875 -90.890625 C 114.6875 -92.503906 122.222656 -94.617188 129.328125 -97.234375 C 133.691406 -98.890625 138.128906 -100.066406 142.640625 -100.765625 C 144.535156 -101.046875 146.394531 -101.226562 148.21875 -101.3125 C 148.675781 -101.382812 149.128906 -101.3125 149.578125 -101.09375 C 150.035156 -100.875 150.242188 -100.421875 150.203125 -99.734375 C 150.160156 -98.578125 149.632812 -97.863281 148.625 -97.59375 C 142.507812 -96.082031 136.378906 -94.328125 130.234375 -92.328125 C 122.765625 -89.765625 115.203125 -87.671875 107.546875 -86.046875 C 99.898438 -84.421875 92.15625 -84.03125 84.3125 -84.875 C 80.3125 -85.3125 76.503906 -86.359375 72.890625 -88.015625 C 64.179688 -92.085938 59.851562 -98.921875 59.90625 -108.515625 C 60.320312 -120.816406 64.503906 -134.160156 72.453125 -148.546875 C 80.398438 -162.929688 90.675781 -177.320312 103.28125 -191.71875 C 115.882812 -206.113281 129.441406 -219.617188 143.953125 -232.234375 C 158.460938 -244.847656 172.488281 -255.570312 186.03125 -264.40625 C 199.582031 -273.238281 211.265625 -279.21875 221.078125 -282.34375 C 223.460938 -283.175781 225.890625 -283.726562 228.359375 -284 C 232.660156 -284.769531 236.925781 -284.851562 241.15625 -284.25 C 248.957031 -283.03125 254.414062 -278.726562 257.53125 -271.34375 C 260.507812 -263.34375 261.234375 -251.929688 259.703125 -237.109375 C 258.171875 -222.285156 255.128906 -205.582031 250.578125 -187 C 246.035156 -168.414062 240.695312 -149.613281 234.5625 -130.59375 C 228.4375 -111.582031 222.304688 -94.019531 216.171875 -77.90625 C 210.046875 -61.800781 204.628906 -48.769531 199.921875 -38.8125 C 198.609375 -36.144531 197.34375 -33.460938 196.125 -30.765625 C 195.914062 -30.035156 196.019531 -29.414062 196.4375 -28.90625 C 196.851562 -28.40625 197.445312 -28.21875 198.21875 -28.34375 L 198.375 -28.359375 C 200.425781 -28.671875 202.472656 -29.035156 204.515625 -29.453125 C 210.421875 -30.554688 216.347656 -31.753906 222.296875 -33.046875 C 234.816406 -35.546875 247.378906 -37.945312 259.984375 -40.25 C 347.191406 -56.269531 435.066406 -66.929688 523.609375 -72.234375 Z M 169.125 -2.671875 C 169.5625 -3.472656 170.054688 -4.3125 170.609375 -5.1875 C 171.535156 -6.695312 172.460938 -8.335938 173.390625 -10.109375 C 174.328125 -11.878906 175.09375 -13.910156 175.6875 -16.203125 C 174.664062 -16.046875 173.71875 -15.898438 172.84375 -15.765625 C 172.488281 -15.710938 172.128906 -15.660156 171.765625 -15.609375 C 171.367188 -15.546875 170.882812 -15.46875 170.3125 -15.375 C 166.726562 -14.351562 163.132812 -13.328125 159.53125 -12.296875 C 154.84375 -11.015625 150.1875 -9.722656 145.5625 -8.421875 C 134.757812 -5.710938 122.34375 -1.929688 108.3125 2.921875 C 94.289062 7.785156 80.691406 13.5625 67.515625 20.25 C 54.347656 26.9375 43.835938 34.398438 35.984375 42.640625 C 33.328125 45.515625 30.976562 48.660156 28.9375 52.078125 C 22.9375 62.597656 25.003906 71.113281 35.140625 77.625 C 46.660156 84.363281 57.925781 87.289062 68.9375 86.40625 C 79.957031 85.53125 90.492188 81.957031 100.546875 75.6875 C 110.609375 69.414062 119.953125 61.660156 128.578125 52.421875 C 137.210938 43.179688 144.960938 33.675781 151.828125 23.90625 C 158.691406 14.144531 164.457031 5.285156 169.125 -2.671875 Z M 169.125 -2.671875 "/></g></g></g></g></g></g><g transform="matrix(1, 0, 0, 1, 181, 164)"><g clip-path="url(#26fe977d1d)"><g fill="#07f67b" fill-opacity="1"><g transform="translate(55.695599, 345.391517)"><g><path d="M 34.296875 -46.015625 C 35.847656 -48.128906 37.21875 -49.390625 38.40625 -49.796875 C 39.59375 -50.210938 40.410156 -50.144531 40.859375 -49.59375 C 41.316406 -49.039062 41.210938 -48.171875 40.546875 -46.984375 C 36.546875 -40.328125 31.84375 -34.390625 26.4375 -29.171875 C 21.03125 -23.960938 15.164062 -20.53125 8.84375 -18.875 C 2.53125 -17.21875 -1.890625 -20.125 -4.421875 -27.59375 C -6.585938 -35.070312 -4.351562 -51.3125 2.28125 -76.3125 C 8.925781 -101.3125 14.070312 -121.742188 17.71875 -137.609375 C 18.03125 -139.035156 18.609375 -140.320312 19.453125 -141.46875 C 20.578125 -143.007812 22.113281 -143.5625 24.0625 -143.125 C 24.71875 -142.9375 25.394531 -142.582031 26.09375 -142.0625 C 26.800781 -141.539062 27.164062 -140.488281 27.1875 -138.90625 C 10.457031 -72.425781 2.925781 -36.523438 4.59375 -31.203125 C 6.269531 -25.890625 10 -25.085938 15.78125 -28.796875 C 21.5625 -32.503906 25.914062 -36.046875 28.84375 -39.421875 C 31.78125 -42.796875 33.597656 -44.992188 34.296875 -46.015625 Z M 34.296875 -46.015625 "/></g></g></g></g></g><g transform="matrix(1, 0, 0, 1, 391, 248)"><g clip-path="url(#fa41f2a0b6)"><g fill="#008bed" fill-opacity="1"><g transform="translate(4.236478, 194.457784)"><g><path d="M 8.375 -140.3125 C 11.539062 -145.070312 15.210938 -149.203125 19.390625 -152.703125 C 23.566406 -156.203125 27.972656 -159.03125 32.609375 -161.1875 C 37.253906 -163.351562 41.820312 -164.847656 46.3125 -165.671875 C 50.8125 -166.503906 54.992188 -166.628906 58.859375 -166.046875 C 62.722656 -165.460938 65.976562 -164.148438 68.625 -162.109375 C 71.269531 -160.066406 73.03125 -157.296875 73.90625 -153.796875 C 74.78125 -150.296875 74.488281 -146.046875 73.03125 -141.046875 C 71.863281 -137.253906 70.066406 -133.753906 67.640625 -130.546875 C 65.210938 -127.335938 62.492188 -124.492188 59.484375 -122.015625 C 58.703125 -121.390625 57.921875 -121.148438 57.140625 -121.296875 C 56.367188 -121.441406 55.726562 -121.828125 55.21875 -122.453125 C 54.707031 -123.085938 54.453125 -123.789062 54.453125 -124.5625 C 54.453125 -125.34375 54.835938 -126.050781 55.609375 -126.6875 C 57.265625 -128 58.914062 -129.347656 60.5625 -130.734375 C 62.21875 -132.117188 63.785156 -133.734375 65.265625 -135.578125 C 66.753906 -137.421875 68.007812 -139.679688 69.03125 -142.359375 C 70.632812 -146.734375 71.082031 -150.4375 70.375 -153.46875 C 69.664062 -156.507812 68.117188 -158.878906 65.734375 -160.578125 C 63.359375 -162.273438 60.382812 -163.34375 56.8125 -163.78125 C 53.238281 -164.21875 49.347656 -164.023438 45.140625 -163.203125 C 40.941406 -162.378906 36.664062 -160.945312 32.3125 -158.90625 C 27.96875 -156.863281 23.828125 -154.210938 19.890625 -150.953125 C 15.960938 -147.703125 12.515625 -143.890625 9.546875 -139.515625 C 5.898438 -134.171875 3.566406 -128.8125 2.546875 -123.4375 C 1.523438 -118.070312 1.5625 -112.765625 2.65625 -107.515625 C 3.75 -102.265625 5.71875 -97.132812 8.5625 -92.125 C 11.40625 -87.125 14.890625 -82.335938 19.015625 -77.765625 C 23.148438 -73.203125 27.722656 -68.90625 32.734375 -64.875 C 35.492188 -62.34375 38.40625 -59.582031 41.46875 -56.59375 C 44.53125 -53.601562 47.519531 -50.476562 50.4375 -47.21875 C 53.351562 -43.96875 55.988281 -40.617188 58.34375 -37.171875 C 60.707031 -33.722656 62.578125 -30.222656 63.953125 -26.671875 C 65.335938 -23.128906 66.039062 -19.609375 66.0625 -16.109375 C 66.09375 -12.609375 65.210938 -9.179688 63.421875 -5.828125 C 62.054688 -3.253906 60.132812 -1.179688 57.65625 0.390625 C 55.175781 1.972656 52.414062 3.03125 49.375 3.5625 C 46.34375 4.101562 43.25 4.128906 40.09375 3.640625 C 36.9375 3.160156 33.9375 2.175781 31.09375 0.6875 C 28.25 -0.789062 25.789062 -2.789062 23.71875 -5.3125 C 21.65625 -7.84375 20.210938 -10.882812 19.390625 -14.4375 C 18.753906 -17.25 18.59375 -20.050781 18.90625 -22.84375 C 19.226562 -25.644531 20.066406 -28.257812 21.421875 -30.6875 C 22.785156 -33.113281 24.71875 -35.164062 27.21875 -36.84375 C 29.726562 -38.519531 32.800781 -39.601562 36.4375 -40.09375 C 37.21875 -40.1875 37.835938 -40.015625 38.296875 -39.578125 C 38.765625 -39.140625 39.046875 -38.601562 39.140625 -37.96875 C 39.234375 -37.34375 39.109375 -36.773438 38.765625 -36.265625 C 38.429688 -35.753906 37.875 -35.453125 37.09375 -35.359375 C 33.601562 -34.921875 30.765625 -34.117188 28.578125 -32.953125 C 26.390625 -31.785156 24.695312 -30.398438 23.5 -28.796875 C 22.3125 -27.191406 21.5 -25.488281 21.0625 -23.6875 C 20.625 -21.894531 20.441406 -20.171875 20.515625 -18.515625 C 20.585938 -16.859375 20.769531 -15.398438 21.0625 -14.140625 C 21.84375 -10.835938 23.191406 -8.054688 25.109375 -5.796875 C 27.023438 -3.535156 29.304688 -1.757812 31.953125 -0.46875 C 34.609375 0.8125 37.378906 1.625 40.265625 1.96875 C 43.160156 2.3125 45.96875 2.226562 48.6875 1.71875 C 51.40625 1.207031 53.832031 0.269531 55.96875 -1.09375 C 58.113281 -2.457031 59.695312 -4.207031 60.71875 -6.34375 C 62.175781 -9.351562 62.769531 -12.484375 62.5 -15.734375 C 62.238281 -18.992188 61.34375 -22.273438 59.8125 -25.578125 C 58.28125 -28.890625 56.320312 -32.179688 53.9375 -35.453125 C 51.5625 -38.734375 48.953125 -41.894531 46.109375 -44.9375 C 43.265625 -47.976562 40.394531 -50.84375 37.5 -53.53125 C 34.613281 -56.226562 31.90625 -58.671875 29.375 -60.859375 C 24.269531 -65.179688 19.710938 -69.804688 15.703125 -74.734375 C 11.691406 -79.671875 8.382812 -84.8125 5.78125 -90.15625 C 3.1875 -95.507812 1.460938 -100.988281 0.609375 -106.59375 C -0.234375 -112.207031 -0.0507812 -117.84375 1.15625 -123.5 C 2.375 -129.164062 4.78125 -134.769531 8.375 -140.3125 Z M 8.375 -140.3125 "/></g></g></g><g fill="#07f67b" fill-opacity="1"><g transform="translate(84.416167, 194.457784)"><g><path d="M 84.703125 -131.203125 C 86.109375 -131.253906 87.285156 -131.179688 88.234375 -130.984375 C 89.179688 -130.785156 89.921875 -130.492188 90.453125 -130.109375 C 91.472656 -129.472656 91.972656 -128.679688 91.953125 -127.734375 C 91.929688 -126.785156 91.578125 -125.972656 90.890625 -125.296875 C 90.210938 -124.617188 89.363281 -124.351562 88.34375 -124.5 C 87.5625 -124.644531 86.90625 -125.054688 86.375 -125.734375 C 85.40625 -125.972656 84.128906 -126.175781 82.546875 -126.34375 C 80.960938 -126.519531 79.285156 -126.65625 77.515625 -126.75 C 75.742188 -126.851562 74.039062 -126.925781 72.40625 -126.96875 C 70.78125 -127.019531 69.457031 -127.046875 68.4375 -127.046875 C 59.207031 -127.140625 49.34375 -126.820312 38.84375 -126.09375 C 28.351562 -125.363281 17.398438 -124.613281 5.984375 -123.84375 C 5.929688 -123.84375 5.878906 -123.84375 5.828125 -123.84375 C 5.785156 -123.84375 5.738281 -123.84375 5.6875 -123.84375 C 5.300781 -117.570312 4.945312 -111.054688 4.625 -104.296875 C 4.3125 -97.546875 4.066406 -90.707031 3.890625 -83.78125 C 3.722656 -76.863281 3.613281 -70 3.5625 -63.1875 C 3.519531 -56.382812 3.546875 -49.851562 3.640625 -43.59375 C 5.242188 -36.644531 6.375 -30.363281 7.03125 -24.75 C 7.6875 -19.132812 8.109375 -14.203125 8.296875 -9.953125 C 8.492188 -5.703125 8.664062 -2.117188 8.8125 0.796875 C 8.914062 2.253906 8.675781 3.359375 8.09375 4.109375 C 7.507812 4.867188 6.789062 5.269531 5.9375 5.3125 C 5.09375 5.363281 4.28125 5.0625 3.5 4.40625 C 2.71875 3.75 2.160156 2.71875 1.828125 1.3125 C 1.429688 -0.488281 1.113281 -2.867188 0.875 -5.828125 C 0.632812 -8.796875 0.453125 -12.066406 0.328125 -15.640625 C 0.203125 -19.210938 0.113281 -22.804688 0.0625 -26.421875 C 0.0195312 -30.046875 0 -33.410156 0 -36.515625 C 0 -39.628906 0 -42.179688 0 -44.171875 C -1.363281 -51.410156 -3.351562 -58.710938 -5.96875 -66.078125 C -8.59375 -73.441406 -11.8125 -80.5625 -15.625 -87.4375 C -19.445312 -94.3125 -23.835938 -100.648438 -28.796875 -106.453125 C -33.753906 -112.265625 -39.289062 -117.234375 -45.40625 -121.359375 C -46.914062 -121.359375 -48.785156 -121.394531 -51.015625 -121.46875 C -53.253906 -121.539062 -55.578125 -121.675781 -57.984375 -121.875 C -60.390625 -122.070312 -62.660156 -122.363281 -64.796875 -122.75 C -66.929688 -123.132812 -68.707031 -123.644531 -70.125 -124.28125 C -71.96875 -125.15625 -73.082031 -126.234375 -73.46875 -127.515625 C -73.863281 -128.804688 -73.695312 -130.007812 -72.96875 -131.125 C -72.238281 -132.25 -71.144531 -132.957031 -69.6875 -133.25 C -68.082031 -133.582031 -66.316406 -133.53125 -64.390625 -133.09375 C -62.472656 -132.65625 -60.519531 -132 -58.53125 -131.125 C -56.539062 -130.25 -54.644531 -129.289062 -52.84375 -128.25 C -51.050781 -127.207031 -49.5 -126.222656 -48.1875 -125.296875 C -44.488281 -125.148438 -40.515625 -125.050781 -36.265625 -125 C -32.015625 -124.957031 -27.675781 -124.957031 -23.25 -125 C -18.832031 -125.050781 -14.492188 -125.113281 -10.234375 -125.1875 C -5.984375 -125.257812 -2.035156 -125.367188 1.609375 -125.515625 C 1.609375 -125.566406 1.609375 -125.59375 1.609375 -125.59375 C 1.609375 -125.59375 1.609375 -125.613281 1.609375 -125.65625 C 1.703125 -128.132812 1.820312 -130.976562 1.96875 -134.1875 C 2.113281 -137.394531 2.28125 -140.625 2.46875 -143.875 C 2.664062 -147.132812 2.890625 -150.050781 3.140625 -152.625 C 3.429688 -155.101562 4.050781 -156.789062 5 -157.6875 C 5.945312 -158.59375 6.878906 -158.726562 7.796875 -158.09375 C 8.722656 -157.46875 9.257812 -156.109375 9.40625 -154.015625 C 9.5 -152.804688 9.59375 -151.164062 9.6875 -149.09375 C 9.789062 -147.03125 9.863281 -145.023438 9.90625 -143.078125 C 9.90625 -142.253906 9.613281 -141.523438 9.03125 -140.890625 C 8.445312 -140.265625 7.722656 -139.953125 6.859375 -139.953125 C 6.660156 -137.710938 6.460938 -135.253906 6.265625 -132.578125 C 6.078125 -129.910156 5.910156 -127.601562 5.765625 -125.65625 C 5.804688 -125.65625 5.828125 -125.65625 5.828125 -125.65625 C 5.828125 -125.65625 5.851562 -125.65625 5.90625 -125.65625 C 9.445312 -125.800781 13.597656 -125.984375 18.359375 -126.203125 C 23.128906 -126.421875 28.28125 -126.703125 33.8125 -127.046875 C 39.351562 -127.390625 45.0625 -127.789062 50.9375 -128.25 C 56.820312 -128.707031 62.632812 -129.207031 68.375 -129.75 C 72.207031 -130.132812 75.445312 -130.457031 78.09375 -130.71875 C 80.75 -130.988281 82.953125 -131.148438 84.703125 -131.203125 Z M -68.515625 -127.921875 C -67.148438 -127.390625 -65.472656 -126.953125 -63.484375 -126.609375 C -61.492188 -126.265625 -59.488281 -126.007812 -57.46875 -125.84375 C -55.457031 -125.675781 -53.769531 -125.539062 -52.40625 -125.4375 C -53.769531 -126.164062 -55.457031 -126.921875 -57.46875 -127.703125 C -59.488281 -128.484375 -61.519531 -129.101562 -63.5625 -129.5625 C -65.601562 -130.019531 -67.375 -130.054688 -68.875 -129.671875 C -69.507812 -129.472656 -69.835938 -129.226562 -69.859375 -128.9375 C -69.890625 -128.644531 -69.441406 -128.304688 -68.515625 -127.921875 Z M 0.078125 -56.78125 C 0.171875 -64.800781 0.289062 -72.707031 0.4375 -80.5 C 0.582031 -88.300781 0.75 -95.832031 0.9375 -103.09375 C 1.132812 -110.363281 1.332031 -117.179688 1.53125 -123.546875 C -3.082031 -123.210938 -7.925781 -122.882812 -13 -122.5625 C -18.082031 -122.25 -23.160156 -121.984375 -28.234375 -121.765625 C -33.316406 -121.546875 -38.164062 -121.410156 -42.78125 -121.359375 C -32.09375 -113.097656 -23.273438 -103.460938 -16.328125 -92.453125 C -9.378906 -81.453125 -3.910156 -69.5625 0.078125 -56.78125 Z M 0.078125 -56.78125 "/></g></g></g><g fill="#d9ff02" fill-opacity="1"><g transform="translate(106.142877, 194.457784)"><g><path d="M 68.734375 -63.921875 C 69.023438 -64.460938 69.410156 -64.707031 69.890625 -64.65625 C 70.378906 -64.601562 70.78125 -64.394531 71.09375 -64.03125 C 71.414062 -63.664062 71.429688 -63.21875 71.140625 -62.6875 C 70.992188 -62.445312 70.640625 -61.925781 70.078125 -61.125 C 69.523438 -60.320312 68.867188 -59.421875 68.109375 -58.421875 C 67.359375 -57.421875 66.617188 -56.484375 65.890625 -55.609375 C 62.734375 -51.828125 59.441406 -49.328125 56.015625 -48.109375 C 52.585938 -46.890625 49.441406 -46.597656 46.578125 -47.234375 C 44.335938 -47.671875 42.40625 -48.59375 40.78125 -50 C 39.15625 -51.40625 37.769531 -53.117188 36.625 -55.140625 C 35.488281 -57.160156 34.503906 -59.300781 33.671875 -61.5625 C 32.847656 -63.820312 32.117188 -65.992188 31.484375 -68.078125 C 31.441406 -67.878906 31.359375 -67.671875 31.234375 -67.453125 C 31.109375 -67.234375 31 -67.003906 30.90625 -66.765625 C 29.882812 -64.242188 28.828125 -61.65625 27.734375 -59 C 26.640625 -56.351562 25.335938 -53.742188 23.828125 -51.171875 C 21.835938 -47.765625 19.738281 -45.304688 17.53125 -43.796875 C 15.320312 -42.296875 13.179688 -41.601562 11.109375 -41.71875 C 9.046875 -41.84375 7.1875 -42.644531 5.53125 -44.125 C 3.882812 -45.613281 2.597656 -47.625 1.671875 -50.15625 C 0.753906 -52.675781 0.175781 -55.476562 -0.0625 -58.5625 C -0.3125 -61.65625 -0.347656 -64.753906 -0.171875 -67.859375 C -0.00390625 -70.972656 0.269531 -73.863281 0.65625 -76.53125 C 0.800781 -77.601562 1.238281 -78.332031 1.96875 -78.71875 C 2.695312 -79.113281 3.472656 -79.210938 4.296875 -79.015625 C 5.128906 -78.816406 5.785156 -78.390625 6.265625 -77.734375 C 6.753906 -77.078125 6.851562 -76.238281 6.5625 -75.21875 C 5.882812 -72.882812 5.335938 -70.304688 4.921875 -67.484375 C 4.503906 -64.671875 4.34375 -61.878906 4.4375 -59.109375 C 4.539062 -56.335938 4.957031 -53.8125 5.6875 -51.53125 C 6.269531 -49.738281 7.082031 -48.332031 8.125 -47.3125 C 9.164062 -46.289062 10.34375 -45.765625 11.65625 -45.734375 C 12.96875 -45.710938 14.316406 -46.304688 15.703125 -47.515625 C 17.085938 -48.734375 18.414062 -50.679688 19.6875 -53.359375 C 20.800781 -55.785156 21.804688 -58.359375 22.703125 -61.078125 C 23.597656 -63.804688 24.484375 -66.429688 25.359375 -68.953125 C 26.085938 -71.140625 27.046875 -72.679688 28.234375 -73.578125 C 29.429688 -74.484375 30.648438 -74.863281 31.890625 -74.71875 C 33.128906 -74.570312 34.222656 -74.046875 35.171875 -73.140625 C 36.117188 -72.242188 36.738281 -71.066406 37.03125 -69.609375 C 37.414062 -67.710938 37.8125 -65.71875 38.21875 -63.625 C 38.632812 -61.539062 39.179688 -59.535156 39.859375 -57.609375 C 40.546875 -55.691406 41.472656 -54.015625 42.640625 -52.578125 C 43.804688 -51.148438 45.3125 -50.144531 47.15625 -49.5625 C 48.863281 -49.03125 50.695312 -48.894531 52.65625 -49.15625 C 54.625 -49.425781 56.628906 -50.164062 58.671875 -51.375 C 60.710938 -52.59375 62.632812 -54.394531 64.4375 -56.78125 C 65.257812 -57.894531 66.019531 -59.046875 66.71875 -60.234375 C 67.425781 -61.429688 68.097656 -62.660156 68.734375 -63.921875 Z M 68.734375 -63.921875 "/></g></g></g><g fill="#7a52c6" fill-opacity="1"><g transform="translate(174.738865, 194.457784)"><g><path d="M 40.75 0.140625 C 41.519531 -0.00390625 42.148438 0.113281 42.640625 0.5 C 43.128906 0.894531 43.429688 1.394531 43.546875 2 C 43.671875 2.613281 43.585938 3.195312 43.296875 3.75 C 43.003906 4.3125 42.46875 4.664062 41.6875 4.8125 C 40.226562 5.101562 38.84375 4.832031 37.53125 4 C 36.226562 3.175781 35.078125 2.0625 34.078125 0.65625 C 33.078125 -0.75 32.238281 -2.132812 31.5625 -3.5 C 30.59375 -5.539062 29.691406 -8.003906 28.859375 -10.890625 C 28.035156 -13.785156 27.269531 -16.875 26.5625 -20.15625 C 25.863281 -23.4375 25.234375 -26.738281 24.671875 -30.0625 C 24.109375 -33.394531 23.597656 -36.554688 23.140625 -39.546875 C 22.679688 -42.535156 22.28125 -45.144531 21.9375 -47.375 C 21.207031 -45.4375 20.304688 -43.3125 19.234375 -41 C 18.171875 -38.6875 16.921875 -36.507812 15.484375 -34.46875 C 14.054688 -32.4375 12.46875 -30.800781 10.71875 -29.5625 C 8.96875 -28.320312 7.023438 -27.796875 4.890625 -27.984375 C 2.941406 -28.128906 1.3125 -28.921875 0 -30.359375 C -1.3125 -31.796875 -2.304688 -33.664062 -2.984375 -35.96875 C -3.671875 -38.28125 -4.0625 -40.832031 -4.15625 -43.625 C -4.25 -46.414062 -4.066406 -49.269531 -3.609375 -52.1875 C -3.148438 -55.101562 -2.421875 -57.882812 -1.421875 -60.53125 C -0.421875 -63.1875 0.816406 -65.519531 2.296875 -67.53125 C 3.773438 -69.550781 5.484375 -71.054688 7.421875 -72.046875 C 9.367188 -73.046875 11.535156 -73.351562 13.921875 -72.96875 C 14.597656 -72.863281 15.398438 -72.640625 16.328125 -72.296875 C 17.253906 -71.960938 18.203125 -71.476562 19.171875 -70.84375 C 18.785156 -75.21875 18.503906 -79.96875 18.328125 -85.09375 C 18.160156 -90.226562 18.148438 -95.503906 18.296875 -100.921875 C 18.441406 -106.335938 18.742188 -111.691406 19.203125 -116.984375 C 19.671875 -122.285156 20.328125 -127.316406 21.171875 -132.078125 C 22.023438 -136.835938 23.109375 -141.085938 24.421875 -144.828125 C 25.734375 -148.472656 27.128906 -150.804688 28.609375 -151.828125 C 30.085938 -152.847656 31.445312 -152.75 32.6875 -151.53125 C 33.925781 -150.320312 34.789062 -148.160156 35.28125 -145.046875 C 35.664062 -142.523438 35.867188 -139.195312 35.890625 -135.0625 C 35.921875 -130.9375 35.773438 -126.285156 35.453125 -121.109375 C 35.140625 -115.929688 34.65625 -110.4375 34 -104.625 C 33.34375 -98.820312 32.53125 -92.921875 31.5625 -86.921875 C 30.59375 -80.921875 29.472656 -75.039062 28.203125 -69.28125 C 26.941406 -63.519531 25.507812 -58.140625 23.90625 -53.140625 C 24.050781 -49.640625 24.304688 -45.726562 24.671875 -41.40625 C 25.035156 -37.082031 25.59375 -32.671875 26.34375 -28.171875 C 27.101562 -23.679688 28.101562 -19.40625 29.34375 -15.34375 C 30.582031 -11.28125 32.125 -7.769531 33.96875 -4.8125 C 34.457031 -4.03125 35.050781 -3.210938 35.75 -2.359375 C 36.457031 -1.515625 37.25 -0.835938 38.125 -0.328125 C 39 0.179688 39.875 0.335938 40.75 0.140625 Z M 27.546875 -143.8125 C 27.015625 -141.625 26.539062 -138.695312 26.125 -135.03125 C 25.71875 -131.363281 25.378906 -127.207031 25.109375 -122.5625 C 24.835938 -117.925781 24.617188 -113.09375 24.453125 -108.0625 C 24.285156 -103.03125 24.148438 -98.035156 24.046875 -93.078125 C 23.953125 -88.117188 23.878906 -83.488281 23.828125 -79.1875 C 23.785156 -74.894531 23.765625 -71.164062 23.765625 -68 C 23.765625 -64.84375 23.765625 -62.535156 23.765625 -61.078125 C 24.878906 -64.628906 25.96875 -68.695312 27.03125 -73.28125 C 28.101562 -77.875 29.113281 -82.757812 30.0625 -87.9375 C 31.007812 -93.113281 31.835938 -98.347656 32.546875 -103.640625 C 33.253906 -108.941406 33.773438 -114.117188 34.109375 -119.171875 C 34.453125 -124.222656 34.570312 -128.9375 34.46875 -133.3125 C 34.375 -137.6875 33.960938 -141.476562 33.234375 -144.6875 C 32.503906 -147.988281 31.640625 -149.675781 30.640625 -149.75 C 29.648438 -149.820312 28.617188 -147.84375 27.546875 -143.8125 Z M 5.90625 -31.78125 C 7.257812 -31.832031 8.582031 -32.390625 9.875 -33.453125 C 11.164062 -34.523438 12.394531 -35.898438 13.5625 -37.578125 C 14.726562 -39.253906 15.796875 -41.050781 16.765625 -42.96875 C 17.734375 -44.882812 18.582031 -46.753906 19.3125 -48.578125 C 20.039062 -50.398438 20.648438 -51.941406 21.140625 -53.203125 C 20.941406 -54.710938 20.769531 -56.050781 20.625 -57.21875 C 20.476562 -58.382812 20.332031 -59.585938 20.1875 -60.828125 C 20.039062 -62.066406 19.875 -63.460938 19.6875 -65.015625 C 18.8125 -64.578125 18.046875 -64.515625 17.390625 -64.828125 C 16.734375 -65.148438 16.0625 -65.585938 15.375 -66.140625 C 14.695312 -66.703125 13.847656 -67.082031 12.828125 -67.28125 C 11.171875 -67.71875 9.640625 -67.375 8.234375 -66.25 C 6.828125 -65.132812 5.585938 -63.53125 4.515625 -61.4375 C 3.453125 -59.351562 2.566406 -57.007812 1.859375 -54.40625 C 1.148438 -51.8125 0.6875 -49.175781 0.46875 -46.5 C 0.25 -43.832031 0.285156 -41.367188 0.578125 -39.109375 C 0.867188 -36.847656 1.453125 -35.046875 2.328125 -33.703125 C 3.203125 -32.367188 4.394531 -31.726562 5.90625 -31.78125 Z M 5.90625 -31.78125 "/></g></g></g><g fill="#008bed" fill-opacity="1"><g transform="translate(217.088516, 194.457784)"><g><path d="M 30.390625 -64.296875 C 30.585938 -64.679688 30.878906 -64.859375 31.265625 -64.828125 C 31.660156 -64.804688 31.976562 -64.660156 32.21875 -64.390625 C 32.457031 -64.128906 32.484375 -63.804688 32.296875 -63.421875 C 32.191406 -63.316406 31.882812 -62.816406 31.375 -61.921875 C 30.863281 -61.023438 30.269531 -60.003906 29.59375 -58.859375 C 28.914062 -57.710938 28.304688 -56.703125 27.765625 -55.828125 C 25.535156 -52.429688 23.054688 -49.867188 20.328125 -48.140625 C 17.609375 -46.421875 14.9375 -45.617188 12.3125 -45.734375 C 9.6875 -45.859375 7.34375 -46.914062 5.28125 -48.90625 C 3.21875 -50.894531 1.675781 -53.882812 0.65625 -57.875 C 0.0195312 -60.59375 -0.390625 -63.566406 -0.578125 -66.796875 C -0.773438 -70.035156 -0.703125 -73.039062 -0.359375 -75.8125 C -0.210938 -76.976562 0.222656 -77.78125 0.953125 -78.21875 C 1.679688 -78.65625 2.457031 -78.765625 3.28125 -78.546875 C 4.101562 -78.328125 4.734375 -77.726562 5.171875 -76.75 C 5.421875 -76.269531 5.726562 -75.445312 6.09375 -74.28125 C 6.457031 -73.113281 6.851562 -72.1875 7.28125 -71.5 C 7.820312 -71.3125 8.257812 -70.984375 8.59375 -70.515625 C 8.9375 -70.054688 9.132812 -69.507812 9.1875 -68.875 C 9.226562 -68 8.984375 -67.269531 8.453125 -66.6875 C 7.921875 -66.101562 7.253906 -65.765625 6.453125 -65.671875 C 5.648438 -65.578125 4.835938 -65.796875 4.015625 -66.328125 C 3.910156 -65.015625 3.867188 -63.703125 3.890625 -62.390625 C 3.921875 -61.078125 4.007812 -59.789062 4.15625 -58.53125 C 4.644531 -55.125 5.703125 -52.535156 7.328125 -50.765625 C 8.953125 -48.992188 10.878906 -48.046875 13.109375 -47.921875 C 15.347656 -47.804688 17.644531 -48.488281 20 -49.96875 C 22.363281 -51.445312 24.492188 -53.691406 26.390625 -56.703125 C 27.160156 -57.921875 27.875 -59.160156 28.53125 -60.421875 C 29.1875 -61.691406 29.804688 -62.984375 30.390625 -64.296875 Z M 5.984375 -86.453125 C 5.984375 -87.566406 5.664062 -88.535156 5.03125 -89.359375 C 4.394531 -90.191406 3.664062 -90.609375 2.84375 -90.609375 C 1.96875 -90.609375 1.210938 -90.191406 0.578125 -89.359375 C -0.046875 -88.535156 -0.359375 -87.566406 -0.359375 -86.453125 C -0.359375 -85.285156 -0.046875 -84.285156 0.578125 -83.453125 C 1.210938 -82.628906 1.96875 -82.21875 2.84375 -82.21875 C 3.664062 -82.21875 4.394531 -82.628906 5.03125 -83.453125 C 5.664062 -84.285156 5.984375 -85.285156 5.984375 -86.453125 Z M 5.984375 -86.453125 "/></g></g></g><g fill="#008bed" fill-opacity="1"><g transform="translate(247.33727, 194.457784)"><g><path d="M 77.625 -147.015625 C 80.445312 -142.347656 82.804688 -137.085938 84.703125 -131.234375 C 86.597656 -125.378906 88.054688 -119.160156 89.078125 -112.578125 C 90.097656 -105.992188 90.703125 -99.226562 90.890625 -92.28125 C 91.085938 -85.332031 90.878906 -78.359375 90.265625 -71.359375 C 89.660156 -64.359375 88.675781 -57.539062 87.3125 -50.90625 C 85.957031 -44.28125 84.222656 -38.015625 82.109375 -32.109375 C 79.992188 -26.203125 77.550781 -20.84375 74.78125 -16.03125 C 71.238281 -9.957031 67.445312 -5.328125 63.40625 -2.140625 C 59.375 1.035156 55.289062 3.035156 51.15625 3.859375 C 47.03125 4.691406 43.023438 4.507812 39.140625 3.3125 C 35.253906 2.125 31.65625 0.171875 28.34375 -2.546875 C 25.039062 -5.273438 22.226562 -8.53125 19.90625 -12.3125 C 17.757812 -15.8125 15.96875 -19.660156 14.53125 -23.859375 C 13.101562 -28.066406 11.9375 -32.429688 11.03125 -36.953125 C 10.132812 -41.472656 9.457031 -45.992188 9 -50.515625 C 8.539062 -55.035156 8.238281 -59.359375 8.09375 -63.484375 C 4.539062 -71.597656 2.191406 -79.613281 1.046875 -87.53125 C -0.0859375 -95.457031 -0.234375 -103.066406 0.609375 -110.359375 C 1.460938 -117.648438 3.101562 -124.425781 5.53125 -130.6875 C 7.96875 -136.957031 11.019531 -142.554688 14.6875 -147.484375 C 18.351562 -152.421875 22.398438 -156.445312 26.828125 -159.5625 C 30.910156 -162.476562 35.234375 -164.492188 39.796875 -165.609375 C 44.367188 -166.722656 48.925781 -166.832031 53.46875 -165.9375 C 58.007812 -165.039062 62.359375 -163.035156 66.515625 -159.921875 C 70.671875 -156.804688 74.375 -152.503906 77.625 -147.015625 Z M 71.9375 -17.640625 C 74.46875 -22.347656 76.691406 -27.601562 78.609375 -33.40625 C 80.523438 -39.21875 82.140625 -45.390625 83.453125 -51.921875 C 84.765625 -58.460938 85.738281 -65.171875 86.375 -72.046875 C 87.007812 -78.921875 87.289062 -85.785156 87.21875 -92.640625 C 87.144531 -99.492188 86.679688 -106.140625 85.828125 -112.578125 C 84.972656 -119.015625 83.734375 -125.078125 82.109375 -130.765625 C 80.484375 -136.453125 78.429688 -141.554688 75.953125 -146.078125 C 72.941406 -151.460938 69.488281 -155.675781 65.59375 -158.71875 C 61.707031 -161.757812 57.585938 -163.726562 53.234375 -164.625 C 48.890625 -165.519531 44.519531 -165.429688 40.125 -164.359375 C 35.726562 -163.296875 31.535156 -161.332031 27.546875 -158.46875 C 23.472656 -155.59375 19.804688 -151.957031 16.546875 -147.5625 C 13.285156 -143.164062 10.550781 -138.242188 8.34375 -132.796875 C 6.132812 -127.359375 4.59375 -121.539062 3.71875 -115.34375 C 2.84375 -109.15625 2.734375 -102.765625 3.390625 -96.171875 C 4.046875 -89.585938 5.613281 -83.039062 8.09375 -76.53125 C 8.238281 -81.539062 8.53125 -86.398438 8.96875 -91.109375 C 9.40625 -95.828125 10.035156 -100.710938 10.859375 -105.765625 C 9.546875 -106.109375 8.816406 -106.785156 8.671875 -107.796875 C 8.523438 -108.816406 8.71875 -109.984375 9.25 -111.296875 C 9.789062 -112.609375 10.472656 -113.957031 11.296875 -115.34375 C 12.117188 -116.726562 12.894531 -117.957031 13.625 -119.03125 C 14.019531 -120.539062 14.519531 -122.253906 15.125 -124.171875 C 15.726562 -126.085938 16.421875 -128.015625 17.203125 -129.953125 C 17.984375 -131.898438 18.867188 -133.6875 19.859375 -135.3125 C 20.859375 -136.945312 21.960938 -138.25 23.171875 -139.21875 C 24.441406 -140.1875 25.660156 -140.679688 26.828125 -140.703125 C 27.992188 -140.734375 28.816406 -140.273438 29.296875 -139.328125 C 29.785156 -138.378906 29.640625 -136.957031 28.859375 -135.0625 C 28.378906 -133.800781 27.601562 -132.242188 26.53125 -130.390625 C 25.457031 -128.546875 24.289062 -126.566406 23.03125 -124.453125 C 21.769531 -122.347656 20.53125 -120.285156 19.3125 -118.265625 C 18.101562 -116.242188 17.070312 -114.40625 16.21875 -112.75 C 15.363281 -111.101562 14.84375 -109.84375 14.65625 -108.96875 C 14.65625 -108.914062 14.628906 -108.570312 14.578125 -107.9375 C 14.523438 -107.3125 14.113281 -106.734375 13.34375 -106.203125 C 12.363281 -101.191406 11.546875 -95.804688 10.890625 -90.046875 C 10.234375 -84.296875 9.8125 -78.53125 9.625 -72.75 C 11.375 -68.851562 13.390625 -65.085938 15.671875 -61.453125 C 16.203125 -60.617188 16.347656 -59.828125 16.109375 -59.078125 C 15.867188 -58.328125 15.421875 -57.734375 14.765625 -57.296875 C 14.109375 -56.859375 13.390625 -56.6875 12.609375 -56.78125 C 11.828125 -56.875 11.171875 -57.335938 10.640625 -58.171875 C 10.546875 -58.316406 10.425781 -58.535156 10.28125 -58.828125 C 10.132812 -59.117188 9.9375 -59.484375 9.6875 -59.921875 C 9.9375 -54.816406 10.4375 -49.484375 11.1875 -43.921875 C 11.9375 -38.359375 13.113281 -32.925781 14.71875 -27.625 C 16.320312 -22.332031 18.488281 -17.5 21.21875 -13.125 C 23.300781 -9.769531 25.859375 -6.835938 28.890625 -4.328125 C 31.929688 -1.828125 35.257812 -0.03125 38.875 1.0625 C 42.5 2.15625 46.226562 2.335938 50.0625 1.609375 C 53.90625 0.878906 57.695312 -1.023438 61.4375 -4.109375 C 65.1875 -7.203125 68.6875 -11.710938 71.9375 -17.640625 Z M 20.046875 -128.4375 C 20.773438 -129.550781 21.550781 -130.738281 22.375 -132 C 23.195312 -133.269531 23.925781 -134.4375 24.5625 -135.5 C 23.632812 -134.625 22.78125 -133.53125 22 -132.21875 C 21.226562 -130.90625 20.578125 -129.644531 20.046875 -128.4375 Z M 20.046875 -128.4375 "/></g></g></g></g></g><g transform="matrix(1, 0, 0, 1, 283, 256)"><g clip-path="url(#270ef90a34)"><g clip-path="url(#e300db748a)"><g fill="#7a52c6" fill-opacity="1"><g transform="translate(4.061112, 163.180231)"><g><path d="M 71.453125 -39.078125 C 71.453125 -38.492188 71.5 -37.957031 71.59375 -37.46875 C 71.6875 -36.988281 71.585938 -36.40625 71.296875 -35.71875 C 71.003906 -35.039062 70.46875 -34.210938 69.6875 -33.234375 C 68.914062 -32.265625 67.65625 -31.101562 65.90625 -29.75 L 34.125 -4.375 L 25.078125 1.75 C 22.941406 3.113281 20.851562 3.988281 18.8125 4.375 C 16.769531 4.757812 14.875 5.050781 13.125 5.25 C 8.070312 5.25 4.035156 3.40625 1.015625 -0.28125 C -1.992188 -3.976562 -3.5 -9.132812 -3.5 -15.75 C -3.5 -18.46875 -2.914062 -21.960938 -1.75 -26.234375 C -0.582031 -30.515625 1.066406 -35.035156 3.203125 -39.796875 C 5.347656 -44.566406 7.972656 -49.378906 11.078125 -54.234375 C 14.191406 -59.097656 17.644531 -63.472656 21.4375 -67.359375 C 25.226562 -71.253906 29.359375 -74.414062 33.828125 -76.84375 C 38.296875 -79.269531 42.960938 -80.484375 47.828125 -80.484375 C 50.359375 -80.484375 52.300781 -79.707031 53.65625 -78.15625 C 55.019531 -76.601562 55.703125 -74.5625 55.703125 -72.03125 C 55.703125 -71.445312 55.601562 -70.863281 55.40625 -70.28125 C 55.207031 -69.695312 55.109375 -69.113281 55.109375 -68.53125 C 55.109375 -68.144531 55.15625 -67.851562 55.25 -67.65625 C 55.351562 -67.457031 55.40625 -67.164062 55.40625 -66.78125 C 55.019531 -63.476562 53.953125 -60.222656 52.203125 -57.015625 C 50.453125 -53.804688 48.410156 -51.425781 46.078125 -49.875 L 50.75 -71.453125 C 45.5 -69.890625 40.195312 -66.726562 34.84375 -61.96875 C 29.5 -57.207031 24.6875 -51.765625 20.40625 -45.640625 C 16.132812 -39.515625 12.632812 -33.195312 9.90625 -26.6875 C 7.1875 -20.175781 5.828125 -14.390625 5.828125 -9.328125 C 5.828125 -7.191406 6.019531 -5.34375 6.40625 -3.78125 C 6.800781 -2.226562 8.359375 -1.453125 11.078125 -1.453125 C 13.609375 -1.453125 15.894531 -1.9375 17.9375 -2.90625 C 19.976562 -3.882812 22.066406 -5.148438 24.203125 -6.703125 C 28.484375 -9.617188 32.320312 -12.144531 35.71875 -14.28125 C 39.125 -16.425781 42.429688 -18.46875 45.640625 -20.40625 C 48.847656 -22.351562 52.101562 -24.441406 55.40625 -26.671875 C 58.707031 -28.910156 62.398438 -31.6875 66.484375 -35 Z M 71.453125 -39.078125 "/></g></g></g></g></g></g></svg>